<svg xmlns="http://www.w3.org/2000/svg" width="1280" height="720" viewBox="0 0 1280 720"><defs><marker id="arrow" viewBox="0 0 10 10" refX="9" refY="5" markerWidth="8" markerHeight="8" orient="auto-start-reverse"><path d="M 0 0 L 10 5 L 0 10 z" fill="#627D98"/></marker></defs><rect width="1280" height="720" fill="#F7FAFC"/><text x="54" y="58" font-family="Segoe UI, Arial, sans-serif" font-size="34" font-weight="750" text-anchor="start" fill="#173F5F">Cấu trúc thư mục RTL theo block</text>
    <rect x="55" y="100" width="230" height="72" rx="14" fill="#173F5F" stroke="#173F5F" stroke-width="3"/><text x="170" y="144" font-family="Segoe UI, Arial, sans-serif" font-size="28" font-weight="650" text-anchor="middle" fill="#FFFFFF">rtl/</text>
    <line x1="285" y1="136" x2="355" y2="136" stroke="#627D98" stroke-width="4" marker-end="url(#arrow)"/>
    <rect x="355" y="80" width="250" height="70" rx="14" fill="#FFFFFF" stroke="#20639B" stroke-width="3"/><text x="480" y="123" font-family="Segoe UI, Arial, sans-serif" font-size="23" font-weight="650" text-anchor="middle" fill="#102A43">core/</text><rect x="355" y="170" width="250" height="70" rx="14" fill="#FFFFFF" stroke="#3CAEA3" stroke-width="3"/><text x="480" y="213" font-family="Segoe UI, Arial, sans-serif" font-size="23" font-weight="650" text-anchor="middle" fill="#102A43">mmu/</text><rect x="355" y="260" width="250" height="70" rx="14" fill="#FFFFFF" stroke="#3CAEA3" stroke-width="3"/><text x="480" y="303" font-family="Segoe UI, Arial, sans-serif" font-size="23" font-weight="650" text-anchor="middle" fill="#102A43">cache/</text><rect x="355" y="350" width="250" height="70" rx="14" fill="#FFFFFF" stroke="#ED553B" stroke-width="3"/><text x="480" y="393" font-family="Segoe UI, Arial, sans-serif" font-size="23" font-weight="650" text-anchor="middle" fill="#102A43">coherence/</text><rect x="355" y="440" width="250" height="70" rx="14" fill="#FFFFFF" stroke="#20639B" stroke-width="3"/><text x="480" y="483" font-family="Segoe UI, Arial, sans-serif" font-size="23" font-weight="650" text-anchor="middle" fill="#102A43">interconnect/ahb/</text><rect x="355" y="530" width="250" height="70" rx="14" fill="#FFFFFF" stroke="#173F5F" stroke-width="3"/><text x="480" y="573" font-family="Segoe UI, Arial, sans-serif" font-size="23" font-weight="650" text-anchor="middle" fill="#102A43">soc/</text><rect x="355" y="620" width="250" height="55" rx="14" fill="#FFFFFF" stroke="#F6D55C" stroke-width="3"/><text x="480" y="655.5" font-family="Segoe UI, Arial, sans-serif" font-size="20" font-weight="650" text-anchor="middle" fill="#102A43">boot/ + debug/</text>
    <rect x="720" y="80" width="500" height="70" rx="14" fill="#E8F1F5" stroke="#20639B" stroke-width="3"/><text x="970" y="123" font-family="Segoe UI, Arial, sans-serif" font-size="20" font-weight="650" text-anchor="middle" fill="#102A43">Pipeline, ISA, CSR, trap, privilege</text>
    <rect x="720" y="170" width="500" height="70" rx="14" fill="#E8F1F5" stroke="#3CAEA3" stroke-width="3"/><text x="970" y="213" font-family="Segoe UI, Arial, sans-serif" font-size="20" font-weight="650" text-anchor="middle" fill="#102A43">Sv32 TLB/PTW + shared cache-controller MMU facade</text>
    <rect x="720" y="260" width="500" height="70" rx="14" fill="#E8F1F5" stroke="#3CAEA3" stroke-width="3"/><text x="970" y="303" font-family="Segoe UI, Arial, sans-serif" font-size="20" font-weight="650" text-anchor="middle" fill="#102A43">L1 I/D, shared L2, core-L1 wrapper</text>
    <rect x="720" y="350" width="500" height="70" rx="14" fill="#E8F1F5" stroke="#ED553B" stroke-width="3"/><text x="970" y="393" font-family="Segoe UI, Arial, sans-serif" font-size="20" font-weight="650" text-anchor="middle" fill="#102A43">MSI manager, directory, snoop engine</text>
    <rect x="720" y="440" width="500" height="70" rx="14" fill="#E8F1F5" stroke="#20639B" stroke-width="3"/><text x="970" y="483" font-family="Segoe UI, Arial, sans-serif" font-size="20" font-weight="650" text-anchor="middle" fill="#102A43">AHB-Lite master/slave adapters</text>
    <rect x="720" y="530" width="500" height="70" rx="14" fill="#E8F1F5" stroke="#173F5F" stroke-width="3"/><text x="970" y="573" font-family="Segoe UI, Arial, sans-serif" font-size="20" font-weight="650" text-anchor="middle" fill="#102A43">Quad-core integration and AXI4 wrappers</text>
    <rect x="720" y="620" width="500" height="55" rx="14" fill="#E8F1F5" stroke="#F6D55C" stroke-width="3"/><text x="970" y="655.5" font-family="Segoe UI, Arial, sans-serif" font-size="19" font-weight="650" text-anchor="middle" fill="#102A43">Boot registers and optional trace buffers</text>
    <line x1="605" y1="115" x2="720" y2="115" stroke="#627D98" stroke-width="4" marker-end="url(#arrow)"/><line x1="605" y1="205" x2="720" y2="205" stroke="#627D98" stroke-width="4" marker-end="url(#arrow)"/><line x1="605" y1="295" x2="720" y2="295" stroke="#627D98" stroke-width="4" marker-end="url(#arrow)"/><line x1="605" y1="385" x2="720" y2="385" stroke="#627D98" stroke-width="4" marker-end="url(#arrow)"/><line x1="605" y1="475" x2="720" y2="475" stroke="#627D98" stroke-width="4" marker-end="url(#arrow)"/><line x1="605" y1="565" x2="720" y2="565" stroke="#627D98" stroke-width="4" marker-end="url(#arrow)"/><line x1="605" y1="647" x2="720" y2="647" stroke="#627D98" stroke-width="4" marker-end="url(#arrow)"/></svg>